<svg xmlns="http://www.w3.org/2000/svg" xmlns:xlink="http://www.w3.org/1999/xlink" id="Layer_1" x="0px" y="0px" viewBox="0 0 115.4 106.6" style="enable-background:new 0 0 115.4 106.6;" xml:space="preserve"><style type="text/css">	.st0{fill:#B93026;}</style><g>	<path class="st0" d="M85.7,58.4h19.5c3.8,0,6.8-3.1,6.8-6.8V11c0-3.8-3.1-6.8-6.8-6.8H85.7c-3.8,0-6.8,3.1-6.8,6.8v40.5  C78.8,55.3,81.9,58.4,85.7,58.4z M84.8,11c0-0.5,0.4-0.8,0.8-0.8h19.5c0.5,0,0.8,0.4,0.8,0.8v40.5c0,0.5-0.4,0.8-0.8,0.8H85.7  c-0.5,0-0.8-0.4-0.8-0.8L84.8,11L84.8,11z"></path>	<path class="st0" d="M12.7,51.7c0.9-0.4,1.9-0.4,1.9-0.4h12c1.7,0,3.1-1.4,3.1-3.1S28.4,45,26.6,45H10.7c-0.9,0-1.9-1.3-1.9-2.9  v-1.9c0-1.5,0.8-2.6,1.5-2.8c0.5-0.2,1.3-0.2,1.3-0.2H26c1.7,0,3-1.3,3-3s-1.3-3-3-3h-8.4c0,0-2.3,0-2.2,0c-1.3,0-1.6-0.3-1.6-0.3  c-0.6-0.4-1.1-1.4-1.1-2.4v-1.8c0-1.4,0.9-2.5,2-2.5h12.1c1.7,0,3-1.3,3-3s-1.3-3-3-3h-0.2l0,0h-4.2c-1,0-1.7-0.1-2.5-0.6  c-0.1,0-0.1,0-0.1-0.1c-0.2-0.1-1.2-0.8-1.1-2.2c0.1-1,0.6-1.9,1.3-2.6c2-2,4.9-2.5,6.3-2.5H51h0.1c4.8-0.2,8.4,1.7,8.4,1.8  l0.1,0.1l4.7,2.4c1.5,0.7,3.3,0.2,4-1.3s0.2-3.3-1.3-4l-4.7-2.4c-0.7-0.4-4.9-2.5-10.5-2.5c-0.3,0-0.7,0-1,0H26.4  c-3,0-7.3,1.1-10.5,4.1c-2.2,2.1-2.9,4.5-3.1,6.2c-0.2,1.4,0,2.7,0.4,3.8c-3.7,0.8-6.4,4.2-6.4,8.4v1.8c0,1.2,0.2,2.3,0.6,3.3  c-2.9,1.4-4.8,4.6-4.8,8.4v1.9c0,3.3,1.6,6.2,3.9,7.9c-0.6,1.2-0.9,2.6-0.9,4.1v1.9c0,4.9,3.6,8.9,8,8.9h20.5c2.3,0.2,2,1.8,2,1.8  c-0.2,1-0.4,1.9-0.5,2.1c0,0.1,0,0.1-0.1,0.2C33,76.2,32.2,83,33.1,88.7l0,0c0,0.1,0,0.2,0,0.3c1.6,10.5,9.5,14.4,12.6,14.9  c2.6,0.7,4.3-0.3,5.1-0.9c2.5-2.1,2.3-6,2.3-7.1c0-5.5-0.1-11.7,0-12.8c0.7-3.9,2.4-7.7,2.8-8.5L67,57.7l1.2-1.7  c0.9-1.3,2.5-1.3,2.5-1.3h1.8c1.7,0,3-1.3,3-3s-1.3-3-3-3h-2.8c-0.2,0-0.4,0-0.5,0c-1.6,0-3.9,0.8-5.2,2.9l-2,2.6l-0.1,0.1  L50.6,71.5c-0.1,0.1-0.1,0.2-0.2,0.4c-0.1,0.2-2.4,5.1-3.3,10.3h0.1c-0.2,1.5-0.2,5-0.1,13.8c0,0,0.3,2.3-1.7,1.5  c-2-0.9-5.3-3.4-6.3-9.2c0-0.2,0-0.3-0.1-0.4c-0.7-4.6,0-10.6,2.1-16.9l0,0c0.3-0.9,0.9-2.8,1-4.6c0.2-1.4-0.1-3.4-1.5-5  c-1.5-1.7-3.8-2.5-6.7-2.4H13.6c-1.1,0-2-1.3-2-2.9V54c0-0.4,0.1-0.8,0.2-1.1C11.7,52.9,11.9,52.1,12.7,51.7z M52,84.9  c0.1-0.1,0.2-0.2,0.2-0.2C52.1,84.7,52.1,84.8,52,84.9z M51.1,85.4c0.1,0,0.2-0.1,0.4-0.2C51.3,85.3,51.2,85.4,51.1,85.4z   M51.5,85.2c0.1-0.1,0.2-0.1,0.3-0.2C51.8,85.1,51.7,85.1,51.5,85.2z M52.3,84.5c0.1-0.1,0.1-0.2,0.2-0.3  C52.5,84.3,52.4,84.4,52.3,84.5z M52.6,84.1c0.1-0.1,0.1-0.3,0.2-0.4C52.8,83.8,52.7,84,52.6,84.1z M52.8,83.7  c0.1-0.2,0.1-0.3,0.1-0.5C52.9,83.4,52.9,83.5,52.8,83.7z M50.9,85.5c-0.1,0-0.2,0.1-0.3,0.1C50.7,85.6,50.8,85.5,50.9,85.5z"></path></g></svg>