<svg xmlns="http://www.w3.org/2000/svg" xmlns:xlink="http://www.w3.org/1999/xlink" id="Layer_1" x="0px" y="0px" viewBox="0 0 115.4 106.6" style="enable-background:new 0 0 115.4 106.6;" xml:space="preserve"><style type="text/css">	.st0{fill:#79AB53;}</style><g>	<path class="st0" d="M29.9,48.9H10.4c-3.8,0-6.8,3.1-6.8,6.8v40.5c0,3.8,3.1,6.8,6.8,6.8h19.5c3.8,0,6.8-3.1,6.8-6.8V55.7  C36.7,51.9,33.6,48.9,29.9,48.9z M30.7,96.2c0,0.5-0.4,0.8-0.8,0.8H10.4c-0.5,0-0.8-0.4-0.8-0.8V55.7c0-0.5,0.4-0.8,0.8-0.8h19.5  c0.5,0,0.8,0.4,0.8,0.8C30.7,55.7,30.7,96.2,30.7,96.2z"></path>	<path class="st0" d="M102.8,55.6c-0.9,0.4-1.9,0.4-1.9,0.4h-12c-1.7,0-3.1,1.4-3.1,3.1s1.4,3.1,3.1,3.1h15.9c0.9,0,1.9,1.3,1.9,2.9  V67c0,1.5-0.8,2.6-1.5,2.8c-0.5,0.2-1.3,0.2-1.3,0.2H89.5c-1.7,0-3,1.3-3,3s1.3,3,3,3h8.4c0,0,2.3,0,2.2,0c1.3,0,1.6,0.3,1.6,0.3  c0.6,0.4,1.1,1.4,1.1,2.4v1.8c0,1.4-0.9,2.5-2,2.5H88.7c-1.7,0-3,1.3-3,3s1.3,3,3,3h0.2l0,0h4.2c1,0,1.7,0.1,2.5,0.6  c0.1,0,0.1,0,0.1,0.1c0.2,0.1,1.2,0.8,1.1,2.2c-0.1,1-0.6,1.9-1.3,2.6c-2,2-4.9,2.5-6.3,2.5H64.5h-0.1c-4.8,0.2-8.4-1.7-8.4-1.8  l-0.1-0.1l-4.7-2.4c-1.5-0.7-3.3-0.2-4,1.3s-0.2,3.3,1.3,4l4.7,2.4c0.7,0.4,4.9,2.5,10.5,2.5c0.3,0,0.7,0,1,0h24.5  c3,0,7.3-1.1,10.5-4.1c2.2-2.1,2.9-4.5,3.1-6.2c0.2-1.4,0-2.7-0.4-3.8c3.7-0.8,6.4-4.2,6.4-8.4v-1.8c0-1.2-0.2-2.3-0.6-3.3  c2.9-1.4,4.8-4.6,4.8-8.4V65c0-3.3-1.6-6.2-3.9-7.9c0.6-1.2,0.9-2.6,0.9-4.1v-1.9c0-4.9-3.6-8.9-8-8.9H81.5c-2.3-0.2-2-1.8-2-1.8  c0.2-1,0.4-1.9,0.5-2.1c0-0.1,0-0.1,0.1-0.2c2.4-7.3,3.3-14.1,2.4-19.8l0,0c0-0.1,0-0.2,0-0.3C80.8,7.8,73,3.9,69.8,3.4  c-2.6-0.7-4.3,0.3-5.1,0.9c-2.5,2.1-2.3,6-2.3,7.1c0,5.5,0.1,11.7,0,12.8c-0.7,3.9-2.4,7.7-2.8,8.5l-11,16.9l-1.2,1.7  c-0.9,1.3-2.5,1.3-2.5,1.3h-1.8c-1.7,0-3,1.3-3,3s1.3,3,3,3H46c0.2,0,0.4,0,0.5,0c1.6,0,3.9-0.8,5.2-2.9l1.9-2.6l0.1-0.1L65,35.8  c0.1-0.1,0.1-0.2,0.2-0.4s2.4-5.1,3.3-10.3h-0.1c0.2-1.5,0.2-5,0.1-13.8c0,0-0.3-2.3,1.7-1.5c2,0.9,5.3,3.4,6.3,9.2  c0,0.2,0,0.3,0.1,0.4c0.7,4.6,0,10.6-2.1,16.9l0,0c-0.3,0.9-0.9,2.8-1,4.6c-0.2,1.4,0.1,3.4,1.5,5c1.5,1.7,3.8,2.5,6.7,2.4H102  c1.1,0,2,1.3,2,2.9v1.9c0,0.4-0.1,0.8-0.2,1.1C103.8,54.3,103.7,55.1,102.8,55.6z M63.6,22.3c-0.1,0.1-0.2,0.2-0.2,0.2  C63.4,22.5,63.5,22.4,63.6,22.3z M64.4,21.8c-0.1,0-0.2,0.1-0.4,0.2C64.2,21.9,64.3,21.8,64.4,21.8z M64,22  c-0.1,0.1-0.2,0.1-0.3,0.2C63.8,22.2,63.9,22.1,64,22z M63.2,22.7C63.1,22.8,63,22.9,63,23C63,22.9,63.1,22.8,63.2,22.7z   M62.9,23.1c-0.1,0.1-0.1,0.3-0.2,0.4C62.8,23.4,62.8,23.2,62.9,23.1z M62.7,23.6c-0.1,0.2-0.1,0.3-0.1,0.5  C62.6,23.9,62.6,23.7,62.7,23.6z M64.6,21.8c0.1,0,0.2-0.1,0.3-0.1C64.8,21.7,64.7,21.7,64.6,21.8z"></path></g></svg>